<svg width="10" height="10" viewBox="0 0 10 10" fill="none" xmlns="http://www.w3.org/2000/svg">
	<path
		d="M1.47461 10C1.2793 10 1.09212 9.96094 0.913086 9.88281C0.734049 9.80143 0.576172 9.69401 0.439453 9.56055C0.30599 9.42383 0.198568 9.26595 0.117188 9.08691C0.0390625 8.90788 0 8.7207 0 8.52539V1.47461C0 1.2793 0.0390625 1.09212 0.117188 0.913086C0.198568 0.734049 0.30599 0.577799 0.439453 0.444336C0.576172 0.307617 0.734049 0.200195 0.913086 0.12207C1.09212 0.0406901 1.2793 0 1.47461 0H8.52539C8.7207 0 8.90788 0.0406901 9.08691 0.12207C9.26595 0.200195 9.4222 0.307617 9.55566 0.444336C9.69238 0.577799 9.7998 0.734049 9.87793 0.913086C9.95931 1.09212 10 1.2793 10 1.47461V8.52539C10 8.7207 9.95931 8.90788 9.87793 9.08691C9.7998 9.26595 9.69238 9.42383 9.55566 9.56055C9.4222 9.69401 9.26595 9.80143 9.08691 9.88281C8.90788 9.96094 8.7207 10 8.52539 10H1.47461ZM8.50098 8.99902C8.56934 8.99902 8.63281 8.986 8.69141 8.95996C8.75326 8.93392 8.80697 8.89811 8.85254 8.85254C8.89811 8.80697 8.93392 8.75488 8.95996 8.69629C8.986 8.63444 8.99902 8.56934 8.99902 8.50098V1.49902C8.99902 1.43066 8.986 1.36719 8.95996 1.30859C8.93392 1.24674 8.89811 1.19303 8.85254 1.14746C8.80697 1.10189 8.75326 1.06608 8.69141 1.04004C8.63281 1.014 8.56934 1.00098 8.50098 1.00098H1.49902C1.43066 1.00098 1.36556 1.014 1.30371 1.04004C1.24512 1.06608 1.19303 1.10189 1.14746 1.14746C1.10189 1.19303 1.06608 1.24674 1.04004 1.30859C1.014 1.36719 1.00098 1.43066 1.00098 1.49902V8.50098C1.00098 8.56934 1.014 8.63444 1.04004 8.69629C1.06608 8.75488 1.10189 8.80697 1.14746 8.85254C1.19303 8.89811 1.24512 8.93392 1.30371 8.95996C1.36556 8.986 1.43066 8.99902 1.49902 8.99902H8.50098Z"
		fill="white" />
</svg>
	