<svg width="10" height="1" viewBox="0 0 10 1" fill="none" xmlns="http://www.w3.org/2000/svg">
	<path
		d="M0.498047 1C0.429688 1 0.364583 0.986979 0.302734 0.960938C0.244141 0.934896 0.192057 0.899089 0.146484 0.853516C0.100911 0.807943 0.0651042 0.755859 0.0390625 0.697266C0.0130208 0.635417 0 0.570312 0 0.501953C0 0.433594 0.0130208 0.370117 0.0390625 0.311523C0.0651042 0.249674 0.100911 0.195964 0.146484 0.150391C0.192057 0.101562 0.244141 0.0641276 0.302734 0.0380859C0.364583 0.0120443 0.429688 -0.000976562 0.498047 -0.000976562H9.50195C9.57031 -0.000976562 9.63379 0.0120443 9.69238 0.0380859C9.75423 0.0641276 9.80794 0.101562 9.85352 0.150391C9.89909 0.195964 9.9349 0.249674 9.96094 0.311523C9.98698 0.370117 10 0.433594 10 0.501953C10 0.570312 9.98698 0.635417 9.96094 0.697266C9.9349 0.755859 9.89909 0.807943 9.85352 0.853516C9.80794 0.899089 9.75423 0.934896 9.69238 0.960938C9.63379 0.986979 9.57031 1 9.50195 1H0.498047Z"
		fill="white" />
</svg>	